<svg xmlns="http://www.w3.org/2000/svg" width="23.341" height="20.452" viewBox="0 0 23.341 20.452">
  <g id="Grupo_38" data-name="Grupo 38" transform="translate(-1754.041 -1559.546)">
    <g id="Grupo_33" data-name="Grupo 33">
      <path id="Caminho_2064" data-name="Caminho 2064" d="M1758.855,1576.161a1,1,0,0,1-.693-.279l-2.578-2.484a1,1,0,1,1,1.387-1.441l2.578,2.483a1,1,0,0,1-.694,1.721Z" fill="#395723"/>
    </g>
    <g id="Grupo_34" data-name="Grupo 34">
      <path id="Caminho_2065" data-name="Caminho 2065" d="M1763.109,1575.8a1,1,0,0,1-.707-1.707l9.336-9.334a1,1,0,0,1,.6-.287l3.937-.413a1,1,0,1,1,.209,1.988l-3.584.377-9.086,9.083a1,1,0,0,1-.707.293Z" fill="#395723"/>
    </g>
    <g id="Grupo_35" data-name="Grupo 35">
      <path id="Caminho_2066" data-name="Caminho 2066" d="M1760.94,1573.34a1,1,0,0,1-.708-.293l-5.9-5.9a1,1,0,0,1,0-1.414l5.9-5.9a1,1,0,0,1,1.415,0l5.9,5.9a1,1,0,0,1,0,1.414l-5.9,5.9a1,1,0,0,1-.707.293Zm-4.485-6.9,4.485,4.484,4.482-4.484-4.482-4.482-4.485,4.482Z" fill="#395723"/>
    </g>
    <g id="Grupo_36" data-name="Grupo 36">
      <path id="Caminho_2067" data-name="Caminho 2067" d="M1762.354,1566.443l-1.414-1.414,2.242-2.242,1.414,1.414-2.242,2.242Z" fill="#395723"/>
    </g>
    <g id="Grupo_37" data-name="Grupo 37">
      <path id="Caminho_2068" data-name="Caminho 2068" d="M1761.029,1580a3.176,3.176,0,0,1-2.244-5.423,3.251,3.251,0,0,1,4.492,0,3.177,3.177,0,0,1-2.248,5.423Zm0-4.353a1.176,1.176,0,0,0-.83,2.008,1.2,1.2,0,0,0,1.664,0,1.175,1.175,0,0,0-.834-2.007Z" fill="#395723"/>
    </g>
  </g>
</svg>
