<svg xmlns="http://www.w3.org/2000/svg" width="25.272" height="21.739" viewBox="0 0 25.272 21.739">
  <g id="Grupo_43" data-name="Grupo 43" transform="matrix(0.809, -0.588, 0.588, 0.809, -3146.471, 1497.185)">
    <path id="Ret창ngulo_27" data-name="Ret창ngulo 27" d="M4.422,0h7.484a0,0,0,0,1,0,0V8.844a0,0,0,0,1,0,0H4.422A4.422,4.422,0,0,1,0,4.422v0A4.422,4.422,0,0,1,4.422,0Z" transform="translate(3417 650)" fill="#395723"/>
    <g id="Ret창ngulo_28" data-name="Ret창ngulo 28" transform="translate(3441.812 658.844) rotate(180)" fill="none" stroke="#395723" stroke-width="1">
      <path d="M4.422,0h7.484a0,0,0,0,1,0,0V8.844a0,0,0,0,1,0,0H4.422A4.422,4.422,0,0,1,0,4.422v0A4.422,4.422,0,0,1,4.422,0Z" stroke="none"/>
      <path d="M4.422.5h6.827a.157.157,0,0,1,.157.157V8.188a.157.157,0,0,1-.157.157H4.422A3.922,3.922,0,0,1,.5,4.422v0A3.922,3.922,0,0,1,4.422.5Z" fill="none"/>
    </g>
  </g>
</svg>
