<svg xmlns="http://www.w3.org/2000/svg" width="23.75" height="23.75" viewBox="0 0 23.75 23.75">
  <g id="Grupo_42" data-name="Grupo 42" transform="translate(-1386.619 -753.114)">
    <g id="Grupo_39" data-name="Grupo 39">
      <path id="Caminho_2069" data-name="Caminho 2069" d="M1398.494,776.864a11.875,11.875,0,1,1,11.875-11.875,11.888,11.888,0,0,1-11.875,11.875Zm0-21.75a9.875,9.875,0,1,0,9.875,9.875,9.886,9.886,0,0,0-9.875-9.875Z" fill="#395723"/>
    </g>
    <g id="Grupo_40" data-name="Grupo 40">
      <path id="Caminho_2070" data-name="Caminho 2070" d="M1393.783,770.448a.742.742,0,0,1-.681-1.039l2.855-6.573a.743.743,0,0,1,.385-.385l6.57-2.858a.742.742,0,0,1,.977.977l-2.86,6.571a.734.734,0,0,1-.383.384l-6.566,2.861a.756.756,0,0,1-.3.062Zm3.42-6.752-1.988,4.575,4.57-1.99,1.99-4.574L1397.2,763.7Z" fill="#395723"/>
    </g>
    <g id="Grupo_41" data-name="Grupo 41">
      <path id="Caminho_2071" data-name="Caminho 2071" d="M1399.687,766.924a.738.738,0,0,1-.525-.217l-3.049-3.05a.743.743,0,0,1,1.051-1.05l3.049,3.05a.742.742,0,0,1-.526,1.267Z" fill="#395723"/>
    </g>
  </g>
</svg>
