<svg xmlns="http://www.w3.org/2000/svg" width="23.666" height="23.667" viewBox="0 0 23.666 23.667">
  <g id="Grupo_32" data-name="Grupo 32" transform="translate(-1753.879 -1124.529)">
    <path id="Caminho_2063" data-name="Caminho 2063" d="M1769.158,1148.2h-6.894a1,1,0,0,1-1-1v-6.386h-6.385a1,1,0,0,1-1-1v-6.894a1,1,0,0,1,1-1h6.385v-6.387a1,1,0,0,1,1-1h6.894a1,1,0,0,1,1,1v6.387h6.387a1,1,0,0,1,1,1v6.894a1,1,0,0,1-1,1h-6.387v6.386a1,1,0,0,1-1,1Zm-5.894-2h4.894v-6.386a1,1,0,0,1,1-1h6.387v-4.894h-6.387a1,1,0,0,1-1-1v-6.387h-4.894v6.387a1,1,0,0,1-1,1h-6.385v4.894h6.385a1,1,0,0,1,1,1v6.386Z" fill="#395723"/>
  </g>
</svg>
