<svg xmlns="http://www.w3.org/2000/svg" width="23.547" height="23.552" viewBox="0 0 23.547 23.552">
  <g id="Grupo_22" data-name="Grupo 22" transform="translate(-1202.533 -691.416)">
    <g id="Grupo_20" data-name="Grupo 20">
      <path id="Caminho_2054" data-name="Caminho 2054" d="M1214.285,699.682a1.072,1.072,0,0,1-.726-.261,1.012,1.012,0,0,1,.007-1.447,1.042,1.042,0,0,1,.719-.279,1.059,1.059,0,0,1,.7.253.9.9,0,0,1,.3.737.934.934,0,0,1-.3.733A1.029,1.029,0,0,1,1214.285,699.682Zm1,2.1v5.872a1.315,1.315,0,0,1-.289.923.964.964,0,0,1-.738.312.918.918,0,0,1-.725-.32,1.355,1.355,0,0,1-.279-.915V701.84a1.311,1.311,0,0,1,.279-.908.939.939,0,0,1,.725-.3.976.976,0,0,1,.738.3A1.185,1.185,0,0,1,1215.289,701.78Z" fill="#395723"/>
    </g>
    <g id="Grupo_21" data-name="Grupo 21">
      <path id="Caminho_2055" data-name="Caminho 2055" d="M1214.307,714.968a11.775,11.775,0,1,1,8.332-3.449,11.7,11.7,0,0,1-8.332,3.449Zm0-21.552a9.776,9.776,0,1,0,6.913,2.862,9.715,9.715,0,0,0-6.913-2.862Z" fill="#395723"/>
    </g>
  </g>
</svg>
