<svg xmlns="http://www.w3.org/2000/svg" width="17.605" height="23.292" viewBox="0 0 17.605 23.292">
  <g id="Grupo_31" data-name="Grupo 31" transform="translate(-1327.121 -1123.217)">
    <g id="Grupo_26" data-name="Grupo 26" transform="translate(1329.337 1123.217)">
      <g id="Grupo_23" data-name="Grupo 23" transform="translate(0 1.032)">
        <path id="Caminho_2056" data-name="Caminho 2056" d="M1335.091,1136.764a1.726,1.726,0,0,1-1.55-.981l-3.75-7.884a1.715,1.715,0,0,1,.811-2.289l2.255-1.072a1.754,1.754,0,0,1,2.287.814l3.752,7.884a1.715,1.715,0,0,1-.817,2.288l-2.249,1.072a1.71,1.71,0,0,1-.739.167Zm-1.547-10.651-2.18,1.1,3.754,7.763,2.2-1.05-3.776-7.811Z" transform="translate(-1329.623 -1124.382)" fill="#395723"/>
      </g>
      <g id="Grupo_24" data-name="Grupo 24" transform="translate(0.192)">
        <path id="Caminho_2057" data-name="Caminho 2057" d="M1330.728,1125.763a.886.886,0,0,1-.383-1.686l1.626-.774a.886.886,0,1,1,.761,1.6l-1.627.774a.88.88,0,0,1-.378.086Z" transform="translate(-1329.839 -1123.217)" fill="#395723"/>
      </g>
      <g id="Grupo_25" data-name="Grupo 25" transform="translate(5.041 11.313)">
        <path id="Caminho_2058" data-name="Caminho 2058" d="M1336.2,1139.188a.886.886,0,0,1-.382-1.687l3-1.429a.886.886,0,1,1,.762,1.6l-3,1.429a.9.9,0,0,1-.379.086Z" transform="translate(-1335.312 -1135.987)" fill="#395723"/>
      </g>
    </g>
    <g id="Grupo_27" data-name="Grupo 27" transform="translate(1327.121 1128.788)">
      <path id="Caminho_2059" data-name="Caminho 2059" d="M1336.461,1145.839a9.34,9.34,0,0,1-6.19-16.334l1.175,1.325a7.569,7.569,0,1,0,11.292,9.9l1.469.991a9.333,9.333,0,0,1-7.745,4.118Zm0-2.358a6.983,6.983,0,0,1-4.938-11.921l1.253,1.253a5.212,5.212,0,0,0,6.6,8.008,4.89,4.89,0,0,0,.445-.337l1.147,1.352a6.969,6.969,0,0,1-4.506,1.646Z" transform="translate(-1327.121 -1129.505)" fill="#395723"/>
    </g>
    <g id="Grupo_28" data-name="Grupo 28" transform="translate(1335.887 1139.609)">
      <path id="Caminho_2060" data-name="Caminho 2060" d="M1344.97,1143.492H1337.9a.886.886,0,1,1,0-1.772h7.068a.886.886,0,0,1,0,1.772Z" transform="translate(-1337.016 -1141.72)" fill="#395723"/>
    </g>
    <g id="Grupo_29" data-name="Grupo 29" transform="translate(1332.04 1144.737)">
      <path id="Caminho_2061" data-name="Caminho 2061" d="M1340.628,1149.281h-7.068a.886.886,0,1,1,0-1.772h7.068a.886.886,0,1,1,0,1.772Z" transform="translate(-1332.674 -1147.509)" fill="#395723"/>
    </g>
    <g id="Grupo_30" data-name="Grupo 30" transform="translate(1330.931 1144.737)">
      <path id="Caminho_2062" data-name="Caminho 2062" d="M1339.375,1149.281h-7.068a.886.886,0,0,1,0-1.772h7.068a.886.886,0,1,1,0,1.772Z" transform="translate(-1331.422 -1147.509)" fill="#395723"/>
    </g>
  </g>
</svg>
