<svg xmlns="http://www.w3.org/2000/svg" width="36" height="36" viewBox="0 0 36 36">
  <g id="Grupo_6" data-name="Grupo 6" transform="translate(-188 -537)">
    <circle id="Elipse_2" data-name="Elipse 2" cx="18" cy="18" r="18" transform="translate(188 537)" fill="#e65c5c"/>
    <path id="Caminho_2045" data-name="Caminho 2045" d="M393.656,113.185c0,.05-.008.092-.008.132,0,1.011,0,3.2,0,3.2h4.438a3.768,3.768,0,0,1-1.629,2.494,4.766,4.766,0,0,1-2.41.774,4.859,4.859,0,0,1-1.8-.209,4.991,4.991,0,0,1-3.417-4.309,4.732,4.732,0,0,1,.1-1.5,4.895,4.895,0,0,1,5.452-3.815,4.47,4.47,0,0,1,2.435,1.174l2.411-2.414a10.32,10.32,0,0,0-1.468-1.078,7.887,7.887,0,0,0-3.932-1.069c-.265,0-.529.012-.793.023a6.509,6.509,0,0,0-1.365.213,8.305,8.305,0,0,0-6.28,7.571,7.827,7.827,0,0,0,.175,2.232,8.205,8.205,0,0,0,3.242,4.954,8.092,8.092,0,0,0,4.425,1.567,8.788,8.788,0,0,0,2.717-.268,7.215,7.215,0,0,0,4.077-2.681,8.886,8.886,0,0,0,1.421-6.988Z" transform="translate(-187.378 440.438)" fill="#fff"/>
  </g>
</svg>
