<svg xmlns="http://www.w3.org/2000/svg" width="36" height="36" viewBox="0 0 36 36">
  <g id="Grupo_7" data-name="Grupo 7" transform="translate(-136 -537)">
    <circle id="Elipse_1" data-name="Elipse 1" cx="18" cy="18" r="18" transform="translate(136 537)" fill="#3868ac"/>
    <path id="Caminho_2044" data-name="Caminho 2044" d="M80.641,110.716v9.33a.243.243,0,0,0,.243.243h3.465a.243.243,0,0,0,.243-.243v-9.482H87.1a.243.243,0,0,0,.242-.222l.242-2.857a.243.243,0,0,0-.242-.264H84.592v-2.027a.86.86,0,0,1,.86-.86h1.936a.243.243,0,0,0,.243-.243v-2.856a.243.243,0,0,0-.243-.243H84.117a3.476,3.476,0,0,0-3.475,3.475v2.754H78.909a.243.243,0,0,0-.243.243v2.857a.243.243,0,0,0,.243.243h1.733Z" transform="translate(71.334 444.009)" fill="#fff" fill-rule="evenodd"/>
  </g>
</svg>
